<svg width="24" height="24" viewBox="0 0 24 24" fill="none" xmlns="http://www.w3.org/2000/svg">
<path d="M7.85835 16.1417C5.58335 13.8667 5.58335 10.1333 7.85835 7.85834" stroke="#9D9DB5" stroke-width="1.16667" stroke-linecap="round" stroke-linejoin="round"/>
<path d="M9.54995 14.45C8.20828 13.1083 8.20828 10.8916 9.54995 9.49164" stroke="#9D9DB5" stroke-width="1.16667" stroke-linecap="round" stroke-linejoin="round"/>
<path d="M12 13.1666C12.6444 13.1666 13.1667 12.6443 13.1667 12C13.1667 11.3556 12.6444 10.8333 12 10.8333C11.3557 10.8333 10.8334 11.3556 10.8334 12C10.8334 12.6443 11.3557 13.1666 12 13.1666Z" stroke="#9D9DB5" stroke-width="1.16667" stroke-linecap="round" stroke-linejoin="round"/>
<path d="M14.45 9.54999C15.7916 10.8917 15.7916 13.1083 14.45 14.5083" stroke="#9D9DB5" stroke-width="1.16667" stroke-linecap="round" stroke-linejoin="round"/>
<path d="M16.1417 7.85834C18.4167 10.1333 18.4167 13.8083 16.1417 16.0833" stroke="#9D9DB5" stroke-width="1.16667" stroke-linecap="round" stroke-linejoin="round"/>
</svg>
